<mxfile host="app.diagrams.net" modified="2023-02-24T11:43:43.494Z" agent="5.0 (Windows NT 10.0; Win64; x64) AppleWebKit/537.36 (KHTML, like Gecko) Chrome/108.0.0.0 YaBrowser/23.1.3.949 Yowser/2.5 Safari/537.36" etag="WBbe788_7N0h0058b3sC" version="20.6.0" type="github">
  <diagram id="C5RBs43oDa-KdzZeNtuy" name="Page-1">
    <mxGraphModel dx="1145" dy="651" grid="1" gridSize="10" guides="1" tooltips="1" connect="1" arrows="1" fold="1" page="1" pageScale="1" pageWidth="827" pageHeight="1169" math="0" shadow="0">
      <root>
        <mxCell id="WIyWlLk6GJQsqaUBKTNV-0" />
        <mxCell id="WIyWlLk6GJQsqaUBKTNV-1" parent="WIyWlLk6GJQsqaUBKTNV-0" />
        <mxCell id="OZCq7sMvK3UTRiwCtcQ2-2" value="" style="edgeStyle=orthogonalEdgeStyle;rounded=0;orthogonalLoop=1;jettySize=auto;html=1;" edge="1" parent="WIyWlLk6GJQsqaUBKTNV-1" source="OZCq7sMvK3UTRiwCtcQ2-0" target="OZCq7sMvK3UTRiwCtcQ2-1">
          <mxGeometry relative="1" as="geometry" />
        </mxCell>
        <mxCell id="OZCq7sMvK3UTRiwCtcQ2-0" value="Start" style="ellipse;whiteSpace=wrap;html=1;" vertex="1" parent="WIyWlLk6GJQsqaUBKTNV-1">
          <mxGeometry x="60" y="40" width="120" height="80" as="geometry" />
        </mxCell>
        <mxCell id="OZCq7sMvK3UTRiwCtcQ2-4" value="" style="edgeStyle=orthogonalEdgeStyle;rounded=0;orthogonalLoop=1;jettySize=auto;html=1;" edge="1" parent="WIyWlLk6GJQsqaUBKTNV-1" source="OZCq7sMvK3UTRiwCtcQ2-1" target="OZCq7sMvK3UTRiwCtcQ2-3">
          <mxGeometry relative="1" as="geometry" />
        </mxCell>
        <mxCell id="OZCq7sMvK3UTRiwCtcQ2-1" value="array = [input user];&lt;br&gt;finalArray = [result];&lt;br&gt;arrayLength = [input user]&lt;br&gt;needLength = 3;&amp;nbsp;&lt;br&gt;n = 0" style="whiteSpace=wrap;html=1;" vertex="1" parent="WIyWlLk6GJQsqaUBKTNV-1">
          <mxGeometry x="40" y="160" width="160" height="80" as="geometry" />
        </mxCell>
        <mxCell id="OZCq7sMvK3UTRiwCtcQ2-6" value="" style="edgeStyle=orthogonalEdgeStyle;rounded=0;orthogonalLoop=1;jettySize=auto;html=1;" edge="1" parent="WIyWlLk6GJQsqaUBKTNV-1" source="OZCq7sMvK3UTRiwCtcQ2-3" target="OZCq7sMvK3UTRiwCtcQ2-5">
          <mxGeometry relative="1" as="geometry" />
        </mxCell>
        <mxCell id="OZCq7sMvK3UTRiwCtcQ2-3" value="array&amp;nbsp;&lt;br&gt;finalArray&lt;br&gt;arrayLength&lt;br&gt;needLength&lt;br&gt;n" style="shape=parallelogram;perimeter=parallelogramPerimeter;whiteSpace=wrap;html=1;fixedSize=1;" vertex="1" parent="WIyWlLk6GJQsqaUBKTNV-1">
          <mxGeometry x="40" y="280" width="160" height="80" as="geometry" />
        </mxCell>
        <mxCell id="OZCq7sMvK3UTRiwCtcQ2-8" value="" style="edgeStyle=orthogonalEdgeStyle;rounded=0;orthogonalLoop=1;jettySize=auto;html=1;" edge="1" parent="WIyWlLk6GJQsqaUBKTNV-1" source="OZCq7sMvK3UTRiwCtcQ2-5" target="OZCq7sMvK3UTRiwCtcQ2-7">
          <mxGeometry relative="1" as="geometry" />
        </mxCell>
        <mxCell id="OZCq7sMvK3UTRiwCtcQ2-5" value="WriteLine = &quot;Введите длину&quot;;&lt;br&gt;arrayLength = [Input user]" style="whiteSpace=wrap;html=1;" vertex="1" parent="WIyWlLk6GJQsqaUBKTNV-1">
          <mxGeometry x="40" y="400" width="160" height="80" as="geometry" />
        </mxCell>
        <mxCell id="OZCq7sMvK3UTRiwCtcQ2-10" value="" style="edgeStyle=orthogonalEdgeStyle;rounded=0;orthogonalLoop=1;jettySize=auto;html=1;" edge="1" parent="WIyWlLk6GJQsqaUBKTNV-1" source="OZCq7sMvK3UTRiwCtcQ2-7" target="OZCq7sMvK3UTRiwCtcQ2-9">
          <mxGeometry relative="1" as="geometry" />
        </mxCell>
        <mxCell id="OZCq7sMvK3UTRiwCtcQ2-7" value="n &amp;lt; arrayLength" style="rhombus;whiteSpace=wrap;html=1;" vertex="1" parent="WIyWlLk6GJQsqaUBKTNV-1">
          <mxGeometry x="44.75" y="519.5" width="150.5" height="150.5" as="geometry" />
        </mxCell>
        <mxCell id="OZCq7sMvK3UTRiwCtcQ2-11" style="edgeStyle=orthogonalEdgeStyle;rounded=0;orthogonalLoop=1;jettySize=auto;html=1;entryX=0;entryY=0.5;entryDx=0;entryDy=0;exitX=0;exitY=0.5;exitDx=0;exitDy=0;" edge="1" parent="WIyWlLk6GJQsqaUBKTNV-1" source="OZCq7sMvK3UTRiwCtcQ2-9" target="OZCq7sMvK3UTRiwCtcQ2-7">
          <mxGeometry relative="1" as="geometry" />
        </mxCell>
        <mxCell id="OZCq7sMvK3UTRiwCtcQ2-9" value="WhiteLine = &quot;Введите значение (n +1) элемента&quot;;&lt;br&gt;array[n] = [Input user];&lt;br&gt;n++;" style="whiteSpace=wrap;html=1;" vertex="1" parent="WIyWlLk6GJQsqaUBKTNV-1">
          <mxGeometry x="40" y="720" width="160" height="80" as="geometry" />
        </mxCell>
      </root>
    </mxGraphModel>
  </diagram>
</mxfile>
